<mxfile host="app.diagrams.net" modified="2022-04-03T11:50:39.223Z" agent="5.0 (Windows NT 10.0; Win64; x64) AppleWebKit/537.36 (KHTML, like Gecko) Chrome/99.0.4844.84 Safari/537.36" etag="zcEgTIieEJW4qs9vcCfV" version="16.5.6" type="github">
  <diagram id="C5RBs43oDa-KdzZeNtuy" name="Page-1">
    <mxGraphModel dx="1296" dy="474" grid="1" gridSize="10" guides="1" tooltips="1" connect="1" arrows="1" fold="1" page="1" pageScale="1" pageWidth="827" pageHeight="1169" math="0" shadow="0">
      <root>
        <mxCell id="WIyWlLk6GJQsqaUBKTNV-0" />
        <mxCell id="WIyWlLk6GJQsqaUBKTNV-1" parent="WIyWlLk6GJQsqaUBKTNV-0" />
        <mxCell id="kc_5tGD6H55U2IQAkzDf-0" value="" style="edgeStyle=orthogonalEdgeStyle;rounded=0;orthogonalLoop=1;jettySize=auto;html=1;" edge="1" parent="WIyWlLk6GJQsqaUBKTNV-1" source="kc_5tGD6H55U2IQAkzDf-1" target="kc_5tGD6H55U2IQAkzDf-3">
          <mxGeometry relative="1" as="geometry" />
        </mxCell>
        <mxCell id="kc_5tGD6H55U2IQAkzDf-1" value="&lt;h4&gt;mulai&amp;nbsp;&lt;/h4&gt;" style="strokeWidth=2;html=1;shape=mxgraph.flowchart.terminator;whiteSpace=wrap;" vertex="1" parent="WIyWlLk6GJQsqaUBKTNV-1">
          <mxGeometry x="350" y="40" width="100" height="60" as="geometry" />
        </mxCell>
        <mxCell id="kc_5tGD6H55U2IQAkzDf-2" value="" style="edgeStyle=orthogonalEdgeStyle;rounded=0;orthogonalLoop=1;jettySize=auto;html=1;" edge="1" parent="WIyWlLk6GJQsqaUBKTNV-1" source="kc_5tGD6H55U2IQAkzDf-3" target="kc_5tGD6H55U2IQAkzDf-6">
          <mxGeometry relative="1" as="geometry" />
        </mxCell>
        <mxCell id="kc_5tGD6H55U2IQAkzDf-3" value="&lt;h4&gt;login&amp;nbsp;&lt;/h4&gt;" style="whiteSpace=wrap;html=1;strokeWidth=2;" vertex="1" parent="WIyWlLk6GJQsqaUBKTNV-1">
          <mxGeometry x="340" y="150" width="120" height="60" as="geometry" />
        </mxCell>
        <mxCell id="kc_5tGD6H55U2IQAkzDf-4" value="tidak&amp;nbsp;" style="edgeStyle=orthogonalEdgeStyle;rounded=0;orthogonalLoop=1;jettySize=auto;html=1;entryX=1;entryY=0.5;entryDx=0;entryDy=0;" edge="1" parent="WIyWlLk6GJQsqaUBKTNV-1" source="kc_5tGD6H55U2IQAkzDf-6" target="kc_5tGD6H55U2IQAkzDf-3">
          <mxGeometry x="-0.7692" relative="1" as="geometry">
            <mxPoint x="470" y="170" as="targetPoint" />
            <Array as="points">
              <mxPoint x="530" y="280" />
              <mxPoint x="530" y="180" />
            </Array>
            <mxPoint as="offset" />
          </mxGeometry>
        </mxCell>
        <mxCell id="kc_5tGD6H55U2IQAkzDf-5" value="ya" style="edgeStyle=orthogonalEdgeStyle;rounded=0;orthogonalLoop=1;jettySize=auto;html=1;" edge="1" parent="WIyWlLk6GJQsqaUBKTNV-1" source="kc_5tGD6H55U2IQAkzDf-6" target="kc_5tGD6H55U2IQAkzDf-8">
          <mxGeometry relative="1" as="geometry" />
        </mxCell>
        <mxCell id="kc_5tGD6H55U2IQAkzDf-6" value="&lt;h4&gt;proses login&lt;/h4&gt;" style="rhombus;whiteSpace=wrap;html=1;strokeWidth=2;" vertex="1" parent="WIyWlLk6GJQsqaUBKTNV-1">
          <mxGeometry x="360" y="240" width="80" height="80" as="geometry" />
        </mxCell>
        <mxCell id="kc_5tGD6H55U2IQAkzDf-33" value="" style="edgeStyle=orthogonalEdgeStyle;rounded=0;orthogonalLoop=1;jettySize=auto;html=1;" edge="1" parent="WIyWlLk6GJQsqaUBKTNV-1" source="kc_5tGD6H55U2IQAkzDf-8" target="kc_5tGD6H55U2IQAkzDf-31">
          <mxGeometry relative="1" as="geometry" />
        </mxCell>
        <mxCell id="kc_5tGD6H55U2IQAkzDf-8" value="&lt;h4&gt;absen masuk&amp;nbsp;&lt;/h4&gt;" style="shape=parallelogram;perimeter=parallelogramPerimeter;whiteSpace=wrap;html=1;fixedSize=1;strokeWidth=2;" vertex="1" parent="WIyWlLk6GJQsqaUBKTNV-1">
          <mxGeometry x="340" y="350" width="120" height="60" as="geometry" />
        </mxCell>
        <mxCell id="kc_5tGD6H55U2IQAkzDf-40" value="" style="edgeStyle=orthogonalEdgeStyle;rounded=0;orthogonalLoop=1;jettySize=auto;html=1;" edge="1" parent="WIyWlLk6GJQsqaUBKTNV-1" target="kc_5tGD6H55U2IQAkzDf-16">
          <mxGeometry relative="1" as="geometry">
            <mxPoint x="400" y="600" as="sourcePoint" />
          </mxGeometry>
        </mxCell>
        <mxCell id="kc_5tGD6H55U2IQAkzDf-39" value="" style="edgeStyle=orthogonalEdgeStyle;rounded=0;orthogonalLoop=1;jettySize=auto;html=1;" edge="1" parent="WIyWlLk6GJQsqaUBKTNV-1" target="kc_5tGD6H55U2IQAkzDf-24">
          <mxGeometry relative="1" as="geometry">
            <mxPoint x="250" y="600" as="sourcePoint" />
          </mxGeometry>
        </mxCell>
        <mxCell id="kc_5tGD6H55U2IQAkzDf-51" value="" style="edgeStyle=orthogonalEdgeStyle;rounded=0;orthogonalLoop=1;jettySize=auto;html=1;" edge="1" parent="WIyWlLk6GJQsqaUBKTNV-1" source="kc_5tGD6H55U2IQAkzDf-16" target="kc_5tGD6H55U2IQAkzDf-17">
          <mxGeometry relative="1" as="geometry" />
        </mxCell>
        <mxCell id="kc_5tGD6H55U2IQAkzDf-60" style="edgeStyle=orthogonalEdgeStyle;rounded=0;orthogonalLoop=1;jettySize=auto;html=1;entryX=0.5;entryY=1;entryDx=0;entryDy=0;" edge="1" parent="WIyWlLk6GJQsqaUBKTNV-1" source="kc_5tGD6H55U2IQAkzDf-16" target="kc_5tGD6H55U2IQAkzDf-55">
          <mxGeometry relative="1" as="geometry" />
        </mxCell>
        <mxCell id="kc_5tGD6H55U2IQAkzDf-16" value="&lt;h4&gt;Selesai&amp;nbsp;&lt;/h4&gt;" style="rhombus;whiteSpace=wrap;html=1;strokeWidth=2;" vertex="1" parent="WIyWlLk6GJQsqaUBKTNV-1">
          <mxGeometry x="360" y="640" width="80" height="80" as="geometry" />
        </mxCell>
        <mxCell id="kc_5tGD6H55U2IQAkzDf-52" value="" style="edgeStyle=orthogonalEdgeStyle;rounded=0;orthogonalLoop=1;jettySize=auto;html=1;" edge="1" parent="WIyWlLk6GJQsqaUBKTNV-1" source="kc_5tGD6H55U2IQAkzDf-17">
          <mxGeometry relative="1" as="geometry">
            <mxPoint x="420" y="960" as="targetPoint" />
          </mxGeometry>
        </mxCell>
        <mxCell id="kc_5tGD6H55U2IQAkzDf-17" value="&lt;h4&gt;absen keluar&amp;nbsp;&lt;/h4&gt;" style="shape=parallelogram;perimeter=parallelogramPerimeter;whiteSpace=wrap;html=1;fixedSize=1;strokeWidth=2;" vertex="1" parent="WIyWlLk6GJQsqaUBKTNV-1">
          <mxGeometry x="360" y="790" width="120" height="60" as="geometry" />
        </mxCell>
        <mxCell id="kc_5tGD6H55U2IQAkzDf-62" style="edgeStyle=orthogonalEdgeStyle;rounded=0;orthogonalLoop=1;jettySize=auto;html=1;entryX=1;entryY=0.5;entryDx=0;entryDy=0;entryPerimeter=0;" edge="1" parent="WIyWlLk6GJQsqaUBKTNV-1" source="kc_5tGD6H55U2IQAkzDf-20">
          <mxGeometry relative="1" as="geometry">
            <mxPoint x="470" y="990" as="targetPoint" />
            <Array as="points">
              <mxPoint x="720" y="990" />
            </Array>
          </mxGeometry>
        </mxCell>
        <mxCell id="kc_5tGD6H55U2IQAkzDf-20" value="&lt;h4&gt;laporan bulanan&lt;/h4&gt;" style="whiteSpace=wrap;html=1;strokeWidth=2;" vertex="1" parent="WIyWlLk6GJQsqaUBKTNV-1">
          <mxGeometry x="660" y="540" width="120" height="60" as="geometry" />
        </mxCell>
        <mxCell id="kc_5tGD6H55U2IQAkzDf-41" value="ya" style="edgeStyle=orthogonalEdgeStyle;rounded=0;orthogonalLoop=1;jettySize=auto;html=1;entryX=0.5;entryY=0;entryDx=0;entryDy=0;" edge="1" parent="WIyWlLk6GJQsqaUBKTNV-1" source="kc_5tGD6H55U2IQAkzDf-24" target="kc_5tGD6H55U2IQAkzDf-26">
          <mxGeometry relative="1" as="geometry">
            <Array as="points">
              <mxPoint x="250" y="740" />
              <mxPoint x="200" y="740" />
            </Array>
          </mxGeometry>
        </mxCell>
        <mxCell id="kc_5tGD6H55U2IQAkzDf-42" value="tidak" style="edgeStyle=orthogonalEdgeStyle;rounded=0;orthogonalLoop=1;jettySize=auto;html=1;entryX=0.5;entryY=0;entryDx=0;entryDy=0;" edge="1" parent="WIyWlLk6GJQsqaUBKTNV-1" source="kc_5tGD6H55U2IQAkzDf-24" target="kc_5tGD6H55U2IQAkzDf-28">
          <mxGeometry relative="1" as="geometry" />
        </mxCell>
        <mxCell id="kc_5tGD6H55U2IQAkzDf-24" value="&lt;h4&gt;menunggu&lt;/h4&gt;" style="rhombus;whiteSpace=wrap;html=1;strokeWidth=2;" vertex="1" parent="WIyWlLk6GJQsqaUBKTNV-1">
          <mxGeometry x="210" y="640" width="80" height="80" as="geometry" />
        </mxCell>
        <mxCell id="kc_5tGD6H55U2IQAkzDf-44" style="edgeStyle=orthogonalEdgeStyle;rounded=0;orthogonalLoop=1;jettySize=auto;html=1;entryX=0.5;entryY=0;entryDx=0;entryDy=0;" edge="1" parent="WIyWlLk6GJQsqaUBKTNV-1" source="kc_5tGD6H55U2IQAkzDf-26" target="kc_5tGD6H55U2IQAkzDf-30">
          <mxGeometry relative="1" as="geometry" />
        </mxCell>
        <mxCell id="kc_5tGD6H55U2IQAkzDf-26" value="&lt;h4&gt;distujui&lt;/h4&gt;" style="whiteSpace=wrap;html=1;strokeWidth=2;" vertex="1" parent="WIyWlLk6GJQsqaUBKTNV-1">
          <mxGeometry x="160" y="760" width="80" height="40" as="geometry" />
        </mxCell>
        <mxCell id="kc_5tGD6H55U2IQAkzDf-45" style="edgeStyle=orthogonalEdgeStyle;rounded=0;orthogonalLoop=1;jettySize=auto;html=1;entryX=0.5;entryY=0;entryDx=0;entryDy=0;" edge="1" parent="WIyWlLk6GJQsqaUBKTNV-1" source="kc_5tGD6H55U2IQAkzDf-28" target="kc_5tGD6H55U2IQAkzDf-30">
          <mxGeometry relative="1" as="geometry" />
        </mxCell>
        <mxCell id="kc_5tGD6H55U2IQAkzDf-28" value="&lt;h4&gt;ditolak&lt;/h4&gt;" style="whiteSpace=wrap;html=1;strokeWidth=2;" vertex="1" parent="WIyWlLk6GJQsqaUBKTNV-1">
          <mxGeometry x="260" y="760" width="80" height="40" as="geometry" />
        </mxCell>
        <mxCell id="kc_5tGD6H55U2IQAkzDf-53" style="edgeStyle=orthogonalEdgeStyle;rounded=0;orthogonalLoop=1;jettySize=auto;html=1;entryX=0;entryY=0.5;entryDx=0;entryDy=0;entryPerimeter=0;" edge="1" parent="WIyWlLk6GJQsqaUBKTNV-1" source="kc_5tGD6H55U2IQAkzDf-30">
          <mxGeometry relative="1" as="geometry">
            <mxPoint x="370" y="990" as="targetPoint" />
            <Array as="points">
              <mxPoint x="250" y="990" />
            </Array>
          </mxGeometry>
        </mxCell>
        <mxCell id="kc_5tGD6H55U2IQAkzDf-30" value="&lt;h4&gt;riwayat persensi&lt;/h4&gt;" style="whiteSpace=wrap;html=1;strokeWidth=2;" vertex="1" parent="WIyWlLk6GJQsqaUBKTNV-1">
          <mxGeometry x="190" y="860" width="120" height="60" as="geometry" />
        </mxCell>
        <mxCell id="kc_5tGD6H55U2IQAkzDf-34" value="" style="edgeStyle=orthogonalEdgeStyle;rounded=0;orthogonalLoop=1;jettySize=auto;html=1;" edge="1" parent="WIyWlLk6GJQsqaUBKTNV-1" source="kc_5tGD6H55U2IQAkzDf-31">
          <mxGeometry relative="1" as="geometry">
            <mxPoint x="400" y="540" as="targetPoint" />
          </mxGeometry>
        </mxCell>
        <mxCell id="kc_5tGD6H55U2IQAkzDf-35" style="edgeStyle=orthogonalEdgeStyle;rounded=0;orthogonalLoop=1;jettySize=auto;html=1;entryX=0.5;entryY=0;entryDx=0;entryDy=0;" edge="1" parent="WIyWlLk6GJQsqaUBKTNV-1" source="kc_5tGD6H55U2IQAkzDf-31">
          <mxGeometry relative="1" as="geometry">
            <mxPoint x="250" y="540" as="targetPoint" />
          </mxGeometry>
        </mxCell>
        <mxCell id="kc_5tGD6H55U2IQAkzDf-36" style="edgeStyle=orthogonalEdgeStyle;rounded=0;orthogonalLoop=1;jettySize=auto;html=1;entryX=0.5;entryY=0;entryDx=0;entryDy=0;" edge="1" parent="WIyWlLk6GJQsqaUBKTNV-1" source="kc_5tGD6H55U2IQAkzDf-31" target="kc_5tGD6H55U2IQAkzDf-20">
          <mxGeometry relative="1" as="geometry" />
        </mxCell>
        <mxCell id="kc_5tGD6H55U2IQAkzDf-37" style="edgeStyle=orthogonalEdgeStyle;rounded=0;orthogonalLoop=1;jettySize=auto;html=1;entryX=0;entryY=0.5;entryDx=0;entryDy=0;" edge="1" parent="WIyWlLk6GJQsqaUBKTNV-1" source="kc_5tGD6H55U2IQAkzDf-31" target="kc_5tGD6H55U2IQAkzDf-30">
          <mxGeometry relative="1" as="geometry">
            <mxPoint x="210" y="890" as="targetPoint" />
            <Array as="points">
              <mxPoint x="70" y="470" />
              <mxPoint x="70" y="890" />
              <mxPoint x="190" y="890" />
            </Array>
          </mxGeometry>
        </mxCell>
        <mxCell id="kc_5tGD6H55U2IQAkzDf-59" style="edgeStyle=orthogonalEdgeStyle;rounded=0;orthogonalLoop=1;jettySize=auto;html=1;entryX=0.5;entryY=0;entryDx=0;entryDy=0;" edge="1" parent="WIyWlLk6GJQsqaUBKTNV-1" source="kc_5tGD6H55U2IQAkzDf-31" target="kc_5tGD6H55U2IQAkzDf-55">
          <mxGeometry relative="1" as="geometry" />
        </mxCell>
        <mxCell id="kc_5tGD6H55U2IQAkzDf-31" value="&lt;h4&gt;Home&lt;/h4&gt;" style="rounded=1;whiteSpace=wrap;html=1;" vertex="1" parent="WIyWlLk6GJQsqaUBKTNV-1">
          <mxGeometry x="340" y="440" width="120" height="60" as="geometry" />
        </mxCell>
        <mxCell id="kc_5tGD6H55U2IQAkzDf-61" value="" style="edgeStyle=orthogonalEdgeStyle;rounded=0;orthogonalLoop=1;jettySize=auto;html=1;" edge="1" parent="WIyWlLk6GJQsqaUBKTNV-1" source="kc_5tGD6H55U2IQAkzDf-55" target="kc_5tGD6H55U2IQAkzDf-20">
          <mxGeometry relative="1" as="geometry" />
        </mxCell>
        <mxCell id="kc_5tGD6H55U2IQAkzDf-55" value="&lt;h4&gt;riwayat kegiatan&lt;/h4&gt;" style="rounded=1;whiteSpace=wrap;html=1;absoluteArcSize=1;arcSize=14;strokeWidth=2;" vertex="1" parent="WIyWlLk6GJQsqaUBKTNV-1">
          <mxGeometry x="500" y="540" width="120" height="60" as="geometry" />
        </mxCell>
        <mxCell id="kc_5tGD6H55U2IQAkzDf-57" value="&lt;h4&gt;buat kegiatan&lt;/h4&gt;" style="rounded=1;whiteSpace=wrap;html=1;absoluteArcSize=1;arcSize=14;strokeWidth=2;" vertex="1" parent="WIyWlLk6GJQsqaUBKTNV-1">
          <mxGeometry x="344" y="540" width="120" height="60" as="geometry" />
        </mxCell>
        <mxCell id="kc_5tGD6H55U2IQAkzDf-58" value="&lt;h4&gt;pengajuan cuti&lt;/h4&gt;" style="rounded=1;whiteSpace=wrap;html=1;absoluteArcSize=1;arcSize=14;strokeWidth=2;" vertex="1" parent="WIyWlLk6GJQsqaUBKTNV-1">
          <mxGeometry x="190" y="540" width="120" height="60" as="geometry" />
        </mxCell>
        <mxCell id="kc_5tGD6H55U2IQAkzDf-63" value="&lt;h4&gt;keluar&lt;/h4&gt;" style="strokeWidth=2;html=1;shape=mxgraph.flowchart.terminator;whiteSpace=wrap;" vertex="1" parent="WIyWlLk6GJQsqaUBKTNV-1">
          <mxGeometry x="370" y="1060" width="100" height="60" as="geometry" />
        </mxCell>
        <mxCell id="kc_5tGD6H55U2IQAkzDf-65" value="" style="edgeStyle=orthogonalEdgeStyle;rounded=0;orthogonalLoop=1;jettySize=auto;html=1;" edge="1" parent="WIyWlLk6GJQsqaUBKTNV-1" source="kc_5tGD6H55U2IQAkzDf-64" target="kc_5tGD6H55U2IQAkzDf-63">
          <mxGeometry relative="1" as="geometry" />
        </mxCell>
        <mxCell id="kc_5tGD6H55U2IQAkzDf-64" value="&lt;h4&gt;log out&lt;/h4&gt;" style="rounded=1;whiteSpace=wrap;html=1;absoluteArcSize=1;arcSize=14;strokeWidth=2;" vertex="1" parent="WIyWlLk6GJQsqaUBKTNV-1">
          <mxGeometry x="370" y="960" width="100" height="60" as="geometry" />
        </mxCell>
        <mxCell id="kc_5tGD6H55U2IQAkzDf-66" value="&lt;h4 style=&quot;color: rgb(0, 0, 0); font-family: helvetica; font-size: 12px; font-style: normal; letter-spacing: normal; text-align: center; text-indent: 0px; text-transform: none; word-spacing: 0px; background-color: rgb(248, 249, 250);&quot;&gt;&lt;font style=&quot;font-size: 24px&quot;&gt;Flowchart Absen tenaga ahli JSC&lt;/font&gt;&lt;/h4&gt;" style="text;whiteSpace=wrap;html=1;" vertex="1" parent="WIyWlLk6GJQsqaUBKTNV-1">
          <mxGeometry x="13" y="90" width="400" height="70" as="geometry" />
        </mxCell>
      </root>
    </mxGraphModel>
  </diagram>
</mxfile>
